# xmcd
#
# Track frame offsets: 
#        150
#        18222
#        36691
#        53950
#        73248
#        91224
#        108443
#        127362
#        144646
#        164234
#
# Disc length: 2431 seconds
#
# Revision: 0
# Processed by: cddbd v1.5.2PL0 Copyright (c) Steve Scherf et al.
# Submitted via: ExactAudioCopy v0.95b4
#
DISCID=9e097d0a
DTITLE="FIVE" (Thai) - Remember
DYEAR=2010
DGENRE=Pop-Folk
TTITLE0=Oon Gooht
TTITLE1=Toer Gap Kau
TTITLE2=Kem Na Le Gah
TTITLE3=Lack Dui Tchivit
TTITLE4=Seet Quam Fan
TTITLE5=Oon Gooht (instrumental)
TTITLE6=Toer Gap Kau (instrumental)
TTITLE7=Kem Na Le Gah (instrumental)
TTITLE8=Lack Dui Tchivit (instrumental)
TTITLE9=Seet Quam Fan (instrumental)
EXTD=
EXTT0=
EXTT1=
EXTT2=
EXTT3=
EXTT4=
EXTT5=
EXTT6=
EXTT7=
EXTT8=
EXTT9=
PLAYORDER=
